<svg width="24" height="24" viewBox="0 0 24 24" fill="none" xmlns="http://www.w3.org/2000/svg">
<path d="M9.74428 7.48778C10.2243 7.00778 10.9687 7.00778 11.4487 7.48778C11.9287 7.96778 11.9287 8.71216 11.4487 9.19216L9.83992 10.8H17.0644C17.7366 10.8 18.2644 11.3278 18.2644 12C18.2644 12.6722 17.7366 13.2 17.0644 13.2H9.83992L11.4721 14.8322C11.9521 15.3122 11.9521 16.0565 11.4721 16.5365C11.2321 16.7765 10.9199 16.8965 10.6321 16.8965C10.3199 16.8965 10.0077 16.7765 9.79212 16.5365L6.11987 12.8643C5.90425 12.6487 5.75987 12.3365 5.75987 12.0243C5.75987 11.7121 5.87987 11.3999 6.11987 11.1843L9.74428 7.48778Z" fill="white"/>
<path d="M11.9999 0.600006C18.2877 0.600006 23.3999 5.71225 23.3999 12C23.3999 18.2878 18.2877 23.4 11.9999 23.4C5.71214 23.4 0.599901 18.2878 0.599901 12C0.599901 5.71225 5.71214 0.600006 11.9999 0.600006ZM11.9999 21C16.9677 21 20.9999 16.9678 20.9999 12C20.9999 7.03225 16.9677 3.00001 11.9999 3.00001C7.03214 3.00001 2.9999 7.03225 2.9999 12C2.9999 16.9678 7.03214 21 11.9999 21Z" fill="white"/>
</svg>
