<svg width="126" height="24" viewBox="0 0 126 24" fill="none" xmlns="http://www.w3.org/2000/svg">
<g clip-path="url(#clip0_24_227)">
<path d="M8.89202 13.4068C8.52349 14.1439 7.47169 14.1439 7.10317 13.4068L6.62168 12.4438C6.48091 12.1623 6.48091 11.8309 6.62168 11.5494L7.10317 10.5864C7.47169 9.84938 8.52349 9.84938 8.89202 10.5864L9.37351 11.5494C9.51427 11.8309 9.51427 12.1623 9.37351 12.4438L8.89202 13.4068Z" fill="#1D4AFF"/>
<path d="M8.89202 21.4044C8.52349 22.1415 7.47169 22.1415 7.10316 21.4044L6.62168 20.4415C6.48091 20.1599 6.48091 19.8286 6.62168 19.547L7.10316 18.584C7.47169 17.847 8.52349 17.847 8.89202 18.5841L9.37351 19.547C9.51427 19.8286 9.51427 20.1599 9.37351 20.4415L8.89202 21.4044Z" fill="#1D4AFF"/>
<path d="M0 19.2094C0 18.3185 1.07714 17.8723 1.70711 18.5023L4.69097 21.4862C5.32094 22.1161 4.87477 23.1933 3.98387 23.1933H0.999999C0.447714 23.1933 0 22.7456 0 22.1933V19.2094ZM0 14.7815C0 15.0467 0.105357 15.301 0.292893 15.4886L7.70471 22.9004C7.89224 23.0879 8.1466 23.1933 8.41181 23.1933H11.9815C12.8724 23.1933 13.3185 22.1161 12.6886 21.4862L1.70711 10.5047C1.07714 9.87473 0 10.3209 0 11.2118V14.7815ZM0 6.78386C0 7.04907 0.105357 7.30343 0.292893 7.49096L15.7023 22.9004C15.8898 23.0879 16.1442 23.1933 16.4094 23.1933H19.9791C20.87 23.1933 21.3161 22.1161 20.6862 21.4862L1.70711 2.50709C1.07714 1.87713 0 2.3233 0 3.2142V6.78386ZM7.9976 6.78386C7.9976 7.04907 8.10296 7.30343 8.29049 7.49096L22.2857 21.4862C22.9157 22.1161 23.9928 21.67 23.9928 20.7791V17.2094C23.9928 16.9442 23.8874 16.6898 23.6999 16.5023L9.70471 2.5071C9.07474 1.87713 7.9976 2.3233 7.9976 3.2142V6.78386ZM17.7023 2.5071C17.0723 1.87713 15.9952 2.3233 15.9952 3.2142V6.78386C15.9952 7.04907 16.1006 7.30343 16.2881 7.49096L22.2857 13.4886C22.9157 14.1185 23.9928 13.6724 23.9928 12.7815V9.2118C23.9928 8.94659 23.8874 8.69223 23.6999 8.5047L17.7023 2.5071Z" fill="#F9BD2B"/>
<path d="M34.0199 18.8247L26.8311 11.6359C26.2012 11.0059 25.124 11.4521 25.124 12.343V22.1933C25.124 22.7456 25.5717 23.1933 26.124 23.1933H37.3885C37.9408 23.1933 38.3885 22.7456 38.3885 22.1933V21.634C38.3885 21.0818 37.9379 20.6423 37.3928 20.5533C36.123 20.346 34.9408 19.7455 34.0199 18.8247ZM28.9629 20.634C28.2565 20.634 27.6833 20.0608 27.6833 19.3544C27.6833 18.6481 28.2565 18.0748 28.9629 18.0748C29.6692 18.0748 30.2425 18.6481 30.2425 19.3544C30.2425 20.0608 29.6692 20.634 28.9629 20.634Z" fill="white"/>
<path d="M0 22.1933C0 22.7456 0.447715 23.1933 1 23.1933H3.98387C4.87477 23.1933 5.32094 22.1161 4.69097 21.4862L1.70711 18.5023C1.07714 17.8723 0 18.3185 0 19.2094V22.1933Z" fill="#1D4AFF"/>
<path d="M7.9976 8.79759L1.70711 2.5071C1.07714 1.87713 0 2.3233 0 3.2142V6.78385C0 7.04907 0.105357 7.30342 0.292893 7.49096L7.9976 15.1957V8.79759Z" fill="#1D4AFF"/>
<path d="M1.70711 10.5047C1.07714 9.87472 0 10.3209 0 11.2118V14.7814C0 15.0467 0.105357 15.301 0.292893 15.4886L7.9976 23.1933V16.7952L1.70711 10.5047Z" fill="#1D4AFF"/>
<path d="M15.9952 9.2118C15.9952 8.94658 15.8898 8.69223 15.7023 8.50469L9.70467 2.5071C9.0747 1.87713 7.99756 2.3233 7.99756 3.2142V6.78385C7.99756 7.04907 8.10292 7.30342 8.29045 7.49096L15.9952 15.1957V9.2118Z" fill="#F54E00"/>
<path d="M7.99756 23.1933H11.9814C12.8723 23.1933 13.3185 22.1161 12.6885 21.4862L7.99756 16.7952V23.1933Z" fill="#F54E00"/>
<path d="M7.99756 8.79761V14.7815C7.99756 15.0467 8.10292 15.301 8.29045 15.4886L15.9952 23.1933V17.2094C15.9952 16.9442 15.8898 16.6899 15.7023 16.5023L7.99756 8.79761Z" fill="#F54E00"/>
<path d="M47.7197 20H51.0061V14.5504H53.7517C56.7677 14.5504 58.7021 12.7616 58.7021 9.99523C58.7021 7.22883 56.7677 5.44003 53.7517 5.44003H47.7197V20ZM51.0061 11.7424V8.24803H53.4189C54.6669 8.24803 55.4157 8.91363 55.4157 9.99523C55.4157 11.0768 54.6669 11.7424 53.4189 11.7424H51.0061Z" fill="white"/>
<path d="M64.6477 20.1664C67.8509 20.1664 70.1805 17.8784 70.1805 14.7584C70.1805 11.6384 67.8509 9.35043 64.6477 9.35043C61.4029 9.35043 59.1149 11.6384 59.1149 14.7584C59.1149 17.8784 61.4029 20.1664 64.6477 20.1664ZM62.1517 14.7584C62.1517 13.0944 63.1501 11.9504 64.6477 11.9504C66.1245 11.9504 67.1229 13.0944 67.1229 14.7584C67.1229 16.4224 66.1245 17.5664 64.6477 17.5664C63.1501 17.5664 62.1517 16.4224 62.1517 14.7584Z" fill="white"/>
<path d="M75.4396 20.1664C77.894 20.1664 79.558 18.6272 79.558 16.8176C79.558 12.5744 73.9212 13.9472 73.9212 12.2832C73.9212 11.8256 74.3996 11.5344 75.086 11.5344C75.7932 11.5344 76.646 11.9712 76.9164 12.928L79.3708 11.9088C78.8924 10.3904 77.1244 9.35043 74.982 9.35043C72.6732 9.35043 71.238 10.7232 71.238 12.3664C71.238 16.3392 76.7916 15.2368 76.7916 16.88C76.7916 17.4624 76.2508 17.8576 75.4396 17.8576C74.2748 17.8576 73.4636 17.0464 73.214 16.0688L70.7596 17.0256C71.3004 18.6064 72.8812 20.1664 75.4396 20.1664Z" fill="white"/>
<path d="M87.4641 19.896L87.2561 17.2544C86.9025 17.4416 86.4449 17.504 86.0705 17.504C85.3217 17.504 84.8225 16.9632 84.8225 16.0272V12.0544H87.3601V9.51683H84.8225V6.48003H81.7649V9.51683H80.1009V12.0544H81.7649V16.4224C81.7649 18.96 83.4913 20.1664 85.7585 20.1664C86.3825 20.1664 86.9649 20.0624 87.4641 19.896Z" fill="white"/>
<path d="M98.1248 5.44003V11.0976H92.3424V5.44003H89.056V20H92.3424V13.9056H98.1248V20H101.432V5.44003H98.1248Z" fill="white"/>
<path d="M108.727 20.1664C111.93 20.1664 114.259 17.8784 114.259 14.7584C114.259 11.6384 111.93 9.35043 108.727 9.35043C105.482 9.35043 103.194 11.6384 103.194 14.7584C103.194 17.8784 105.482 20.1664 108.727 20.1664ZM106.231 14.7584C106.231 13.0944 107.229 11.9504 108.727 11.9504C110.203 11.9504 111.202 13.0944 111.202 14.7584C111.202 16.4224 110.203 17.5664 108.727 17.5664C107.229 17.5664 106.231 16.4224 106.231 14.7584Z" fill="white"/>
<path d="M120.161 19.6672C121.305 19.6672 122.324 19.272 122.865 18.5856V19.584C122.865 20.7488 121.929 21.56 120.494 21.56C119.475 21.56 118.58 21.0608 118.435 20.208L115.647 20.6448C116.022 22.6208 118.039 23.952 120.494 23.952C123.718 23.952 125.86 22.0592 125.86 19.2512V9.51683H122.844V10.4112C122.283 9.76643 121.326 9.35043 120.099 9.35043C117.187 9.35043 115.356 11.3472 115.356 14.5088C115.356 17.6704 117.187 19.6672 120.161 19.6672ZM118.331 14.5088C118.331 12.9488 119.246 11.9504 120.66 11.9504C122.095 11.9504 123.011 12.9488 123.011 14.5088C123.011 16.0688 122.095 17.0672 120.66 17.0672C119.246 17.0672 118.331 16.0688 118.331 14.5088Z" fill="white"/>
</g>
<defs>
<clipPath id="clip0_24_227">
<rect width="125.6" height="24" fill="white"/>
</clipPath>
</defs>
</svg>
