<svg width="18" height="15" viewBox="0 0 18 15" fill="none" xmlns="http://www.w3.org/2000/svg">
<g clip-path="url(#clip0_24_265)">
<path d="M5.68318 14.737C12.4308 14.737 16.1208 9.16862 16.1208 4.33989C16.1208 4.18173 16.1175 4.02428 16.1104 3.86755C16.8267 3.35175 17.4493 2.70806 17.9403 1.97532C17.283 2.26635 16.5757 2.46226 15.8336 2.55061C16.591 2.09821 17.1725 1.38257 17.4468 0.529452C16.738 0.948009 15.9531 1.25222 15.1174 1.41646C14.4479 0.706184 13.4949 0.261932 12.4396 0.261932C10.4138 0.261932 8.77099 1.89842 8.77099 3.91563C8.77099 4.20239 8.80317 4.48131 8.86611 4.74885C5.81721 4.59603 3.11367 3.14194 1.30431 0.930908C0.989264 1.47093 0.807601 2.09823 0.807601 2.76756C0.807601 4.03535 1.45524 5.15455 2.44008 5.8093C1.83822 5.79078 1.27284 5.6262 0.778682 5.35227C0.778142 5.3676 0.77814 5.38255 0.77814 5.39894C0.77814 7.16865 2.04264 8.64622 3.7212 8.98104C3.41295 9.06475 3.08862 9.10963 2.75388 9.10963C2.51786 9.10963 2.28792 9.08649 2.06442 9.04373C2.53145 10.4957 3.88572 11.5522 5.49132 11.5818C4.23576 12.5621 2.6541 13.1459 0.935101 13.1459C0.639361 13.1459 0.347201 13.1292 0.0600586 13.0953C1.6836 14.1319 3.6114 14.7368 5.68338 14.7368" fill="white"/>
</g>
<defs>
<clipPath id="clip0_24_265">
<rect width="18" height="14.5946" fill="white" transform="translate(0 0.202698)"/>
</clipPath>
</defs>
</svg>
